<?xml version="1.0" standalone="no"?>
<svg xmlns:xlink="http://www.w3.org/1999/xlink" id="wave" style="transform:rotate(0deg); transition: 0.3s" viewBox="0 0 1440 490" version="1.1" xmlns="http://www.w3.org/2000/svg"><defs><linearGradient id="sw-gradient-0" x1="0" x2="0" y1="1" y2="0"><stop stop-color="rgba(46, 45, 120, 1)" offset="0%"/><stop stop-color="rgba(78, 179, 226, 0.23)" offset="100%"/></linearGradient></defs><path style="transform:translate(0, 0px); opacity:1" fill="url(#sw-gradient-0)" d="M0,245L80,277.7C160,310,320,376,480,367.5C640,359,800,278,960,212.3C1120,147,1280,98,1440,130.7C1600,163,1760,278,1920,310.3C2080,343,2240,294,2400,277.7C2560,261,2720,278,2880,310.3C3040,343,3200,392,3360,343C3520,294,3680,147,3840,89.8C4000,33,4160,65,4320,138.8C4480,212,4640,327,4800,310.3C4960,294,5120,147,5280,122.5C5440,98,5600,196,5760,236.8C5920,278,6080,261,6240,236.8C6400,212,6560,180,6720,212.3C6880,245,7040,343,7200,318.5C7360,294,7520,147,7680,122.5C7840,98,8000,196,8160,212.3C8320,229,8480,163,8640,122.5C8800,82,8960,65,9120,114.3C9280,163,9440,278,9600,326.7C9760,376,9920,359,10080,302.2C10240,245,10400,147,10560,147C10720,147,10880,245,11040,302.2C11200,359,11360,376,11440,383.8L11520,392L11520,490L11440,490C11360,490,11200,490,11040,490C10880,490,10720,490,10560,490C10400,490,10240,490,10080,490C9920,490,9760,490,9600,490C9440,490,9280,490,9120,490C8960,490,8800,490,8640,490C8480,490,8320,490,8160,490C8000,490,7840,490,7680,490C7520,490,7360,490,7200,490C7040,490,6880,490,6720,490C6560,490,6400,490,6240,490C6080,490,5920,490,5760,490C5600,490,5440,490,5280,490C5120,490,4960,490,4800,490C4640,490,4480,490,4320,490C4160,490,4000,490,3840,490C3680,490,3520,490,3360,490C3200,490,3040,490,2880,490C2720,490,2560,490,2400,490C2240,490,2080,490,1920,490C1760,490,1600,490,1440,490C1280,490,1120,490,960,490C800,490,640,490,480,490C320,490,160,490,80,490L0,490Z"/></svg>